<svg xmlns="http://www.w3.org/2000/svg" viewBox="0 0 84 84">
<rect width="84" height="84" fill="#ffffff"/>
<rect x="0" y="0" width="28" height="28" fill="#1b1b1f"/><rect x="4" y="4" width="20" height="20" fill="#ffffff"/><rect x="8" y="8" width="12" height="12" fill="#1b1b1f"/>
<rect x="56" y="0" width="28" height="28" fill="#1b1b1f"/><rect x="60" y="4" width="20" height="20" fill="#ffffff"/><rect x="64" y="8" width="12" height="12" fill="#1b1b1f"/>
<rect x="0" y="56" width="28" height="28" fill="#1b1b1f"/><rect x="4" y="60" width="20" height="20" fill="#ffffff"/><rect x="8" y="64" width="12" height="12" fill="#1b1b1f"/>
<rect x="36" y="0" width="4" height="4" fill="#1b1b1f"/><rect x="40" y="0" width="4" height="4" fill="#1b1b1f"/><rect x="52" y="0" width="4" height="4" fill="#1b1b1f"/><rect x="40" y="4" width="4" height="4" fill="#1b1b1f"/><rect x="48" y="4" width="4" height="4" fill="#1b1b1f"/><rect x="52" y="4" width="4" height="4" fill="#1b1b1f"/><rect x="32" y="8" width="4" height="4" fill="#1b1b1f"/><rect x="40" y="8" width="4" height="4" fill="#1b1b1f"/><rect x="36" y="12" width="4" height="4" fill="#1b1b1f"/><rect x="40" y="12" width="4" height="4" fill="#1b1b1f"/><rect x="44" y="12" width="4" height="4" fill="#1b1b1f"/><rect x="36" y="16" width="4" height="4" fill="#1b1b1f"/><rect x="48" y="16" width="4" height="4" fill="#1b1b1f"/><rect x="52" y="16" width="4" height="4" fill="#1b1b1f"/><rect x="32" y="20" width="4" height="4" fill="#1b1b1f"/><rect x="52" y="20" width="4" height="4" fill="#1b1b1f"/><rect x="0" y="32" width="4" height="4" fill="#1b1b1f"/><rect x="4" y="32" width="4" height="4" fill="#1b1b1f"/><rect x="20" y="32" width="4" height="4" fill="#1b1b1f"/><rect x="56" y="32" width="4" height="4" fill="#1b1b1f"/><rect x="60" y="32" width="4" height="4" fill="#1b1b1f"/><rect x="68" y="32" width="4" height="4" fill="#1b1b1f"/><rect x="76" y="32" width="4" height="4" fill="#1b1b1f"/><rect x="4" y="36" width="4" height="4" fill="#1b1b1f"/><rect x="16" y="36" width="4" height="4" fill="#1b1b1f"/><rect x="56" y="36" width="4" height="4" fill="#1b1b1f"/><rect x="64" y="36" width="4" height="4" fill="#1b1b1f"/><rect x="68" y="36" width="4" height="4" fill="#1b1b1f"/><rect x="72" y="36" width="4" height="4" fill="#1b1b1f"/><rect x="76" y="36" width="4" height="4" fill="#1b1b1f"/><rect x="80" y="36" width="4" height="4" fill="#1b1b1f"/><rect x="0" y="40" width="4" height="4" fill="#1b1b1f"/><rect x="16" y="40" width="4" height="4" fill="#1b1b1f"/><rect x="56" y="40" width="4" height="4" fill="#1b1b1f"/><rect x="60" y="40" width="4" height="4" fill="#1b1b1f"/><rect x="64" y="40" width="4" height="4" fill="#1b1b1f"/><rect x="4" y="44" width="4" height="4" fill="#1b1b1f"/><rect x="16" y="44" width="4" height="4" fill="#1b1b1f"/><rect x="20" y="44" width="4" height="4" fill="#1b1b1f"/><rect x="68" y="44" width="4" height="4" fill="#1b1b1f"/><rect x="80" y="44" width="4" height="4" fill="#1b1b1f"/><rect x="4" y="48" width="4" height="4" fill="#1b1b1f"/><rect x="12" y="48" width="4" height="4" fill="#1b1b1f"/><rect x="60" y="48" width="4" height="4" fill="#1b1b1f"/><rect x="64" y="48" width="4" height="4" fill="#1b1b1f"/><rect x="72" y="48" width="4" height="4" fill="#1b1b1f"/><rect x="76" y="48" width="4" height="4" fill="#1b1b1f"/><rect x="80" y="48" width="4" height="4" fill="#1b1b1f"/><rect x="0" y="52" width="4" height="4" fill="#1b1b1f"/><rect x="4" y="52" width="4" height="4" fill="#1b1b1f"/><rect x="8" y="52" width="4" height="4" fill="#1b1b1f"/><rect x="12" y="52" width="4" height="4" fill="#1b1b1f"/><rect x="20" y="52" width="4" height="4" fill="#1b1b1f"/><rect x="64" y="52" width="4" height="4" fill="#1b1b1f"/><rect x="76" y="52" width="4" height="4" fill="#1b1b1f"/><rect x="40" y="56" width="4" height="4" fill="#1b1b1f"/><rect x="48" y="56" width="4" height="4" fill="#1b1b1f"/><rect x="56" y="56" width="4" height="4" fill="#1b1b1f"/><rect x="64" y="56" width="4" height="4" fill="#1b1b1f"/><rect x="68" y="56" width="4" height="4" fill="#1b1b1f"/><rect x="80" y="56" width="4" height="4" fill="#1b1b1f"/><rect x="32" y="60" width="4" height="4" fill="#1b1b1f"/><rect x="36" y="60" width="4" height="4" fill="#1b1b1f"/><rect x="48" y="60" width="4" height="4" fill="#1b1b1f"/><rect x="64" y="60" width="4" height="4" fill="#1b1b1f"/><rect x="68" y="60" width="4" height="4" fill="#1b1b1f"/><rect x="72" y="60" width="4" height="4" fill="#1b1b1f"/><rect x="76" y="60" width="4" height="4" fill="#1b1b1f"/><rect x="80" y="60" width="4" height="4" fill="#1b1b1f"/><rect x="32" y="64" width="4" height="4" fill="#1b1b1f"/><rect x="36" y="64" width="4" height="4" fill="#1b1b1f"/><rect x="52" y="64" width="4" height="4" fill="#1b1b1f"/><rect x="56" y="64" width="4" height="4" fill="#1b1b1f"/><rect x="72" y="64" width="4" height="4" fill="#1b1b1f"/><rect x="36" y="68" width="4" height="4" fill="#1b1b1f"/><rect x="52" y="68" width="4" height="4" fill="#1b1b1f"/><rect x="56" y="68" width="4" height="4" fill="#1b1b1f"/><rect x="68" y="68" width="4" height="4" fill="#1b1b1f"/><rect x="36" y="72" width="4" height="4" fill="#1b1b1f"/><rect x="44" y="72" width="4" height="4" fill="#1b1b1f"/><rect x="48" y="72" width="4" height="4" fill="#1b1b1f"/><rect x="60" y="72" width="4" height="4" fill="#1b1b1f"/><rect x="68" y="72" width="4" height="4" fill="#1b1b1f"/><rect x="76" y="72" width="4" height="4" fill="#1b1b1f"/><rect x="40" y="76" width="4" height="4" fill="#1b1b1f"/><rect x="44" y="76" width="4" height="4" fill="#1b1b1f"/><rect x="48" y="76" width="4" height="4" fill="#1b1b1f"/><rect x="52" y="76" width="4" height="4" fill="#1b1b1f"/><rect x="60" y="76" width="4" height="4" fill="#1b1b1f"/><rect x="72" y="76" width="4" height="4" fill="#1b1b1f"/><rect x="32" y="80" width="4" height="4" fill="#1b1b1f"/><rect x="36" y="80" width="4" height="4" fill="#1b1b1f"/><rect x="44" y="80" width="4" height="4" fill="#1b1b1f"/><rect x="48" y="80" width="4" height="4" fill="#1b1b1f"/><rect x="64" y="80" width="4" height="4" fill="#1b1b1f"/><rect x="72" y="80" width="4" height="4" fill="#1b1b1f"/><rect x="80" y="80" width="4" height="4" fill="#1b1b1f"/>
<circle cx="42.0" cy="42.0" r="12.0" fill="#da052a"/>
<path d="M35 40 C35 32.5, 49 32.5, 49 40" fill="none" stroke="#ffffff" stroke-width="2.6" stroke-linecap="round"/>
<rect x="33.4" y="39" width="5" height="9" rx="2.3" fill="#ffffff"/>
<rect x="45.6" y="39" width="5" height="9" rx="2.3" fill="#ffffff"/>
</svg>